# xmcd
# 
# Track frame offsets:
#     150
#     26807
#     43362
#     71265
#     88527
#     101417
#     124867
#     136672
#     155957
# 
# Disc length: 2301
# 
# Revision: 1
# Processed by: cddbd v1.5.2PL0 Copyright (c) Steve Scherf et al.
# Submitted via: BonkEnc v1.0.8
# 
DISCID=7808fb09
DTITLE=Wynton Kelly - Wynton Kelly
DYEAR=1961
DGENRE=Jazz
TTITLE0=Come Rain Or Come Shine
TTITLE1=Make The Man Love Me
TTITLE2=Autumn Leaves
TTITLE3=Surrey With The Fringe On Top
TTITLE4=Joe's Avenue
TTITLE5=Sassy
TTITLE6=Love I've Found You
TTITLE7=Gone With The Wind
TTITLE8=Surrey With The Fringe On Top (Take 3)
EXTD=
EXTT0=
EXTT1=
EXTT2=
EXTT3=
EXTT4=
EXTT5=
EXTT6=
EXTT7=
EXTT8=
PLAYORDER=
